<?xml version="1.0" standalone="no"?>
<!DOCTYPE svg PUBLIC "-//W3C//DTD SVG 20010904//EN"
 "http://www.w3.org/TR/2001/REC-SVG-20010904/DTD/svg10.dtd">
<svg version="1.0" xmlns="http://www.w3.org/2000/svg"
 width="275.000000pt" height="183.000000pt" viewBox="0 0 275.000000 183.000000"
 preserveAspectRatio="xMidYMid meet">

<g transform="translate(0.000000,183.000000) scale(0.100000,-0.100000)"
fill="#000000" stroke="none">
<path d="M1436 1357 c3 -10 9 -15 12 -12 3 3 0 11 -7 18 -10 9 -11 8 -5 -6z"/>
<path d="M1600 1353 c0 -14 -2 -15 -9 -5 -7 11 -10 10 -15 -3 -9 -25 -8 -27
13 -16 10 6 21 8 24 5 3 -3 3 3 0 15 -7 26 -13 27 -13 4z"/>
<path d="M1656 1358 c5 -8 2 -9 -9 -5 -11 4 -17 1 -17 -7 0 -9 7 -12 20 -9 21
5 28 33 9 33 -5 0 -7 -5 -3 -12z"/>
<path d="M1801 1363 c-1 -6 -4 -20 -7 -30 -5 -17 -5 -17 6 0 6 10 9 23 6 30
-3 9 -5 9 -5 0z"/>
<path d="M1481 1344 c0 -11 3 -14 6 -6 3 7 2 16 -1 19 -3 4 -6 -2 -5 -13z"/>
<path d="M1535 1335 c0 -14 3 -25 8 -25 4 0 7 11 7 25 0 14 -3 25 -7 25 -5 0
-8 -11 -8 -25z"/>
<path d="M1754 1327 c-1 -30 -1 -30 9 -9 6 14 7 26 1 32 -5 5 -9 -4 -10 -23z"/>
<path d="M1391 1326 c-7 -8 -8 -17 -3 -20 6 -3 12 3 15 14 6 24 4 25 -12 6z"/>
<path d="M1606 1305 c-3 -8 -1 -15 3 -15 5 0 11 7 15 15 3 8 1 15 -3 15 -5 0
-11 -7 -15 -15z"/>
<path d="M1646 1307 c3 -10 9 -15 12 -12 3 3 0 11 -7 18 -10 9 -11 8 -5 -6z"/>
<path d="M1686 1312 c-3 -5 1 -9 9 -9 8 0 12 4 9 9 -3 4 -7 8 -9 8 -2 0 -6 -4
-9 -8z"/>
<path d="M1785 1300 c-3 -5 -1 -10 4 -10 6 0 11 5 11 10 0 6 -2 10 -4 10 -3 0
-8 -4 -11 -10z"/>
<path d="M1822 1120 c-13 -6 -21 -14 -17 -20 3 -5 6 -30 7 -55 l1 -46 31 6
c76 16 254 57 280 66 28 9 46 5 46 -10 0 -5 -53 -21 -117 -36 -65 -15 -122
-32 -127 -36 -13 -12 11 -11 54 1 76 23 200 47 200 40 0 -4 -9 -19 -20 -33
-11 -14 -20 -28 -20 -32 0 -4 -45 -77 -100 -162 -56 -86 -98 -158 -95 -161 3
-3 5 -2 5 2 0 4 8 2 19 -3 16 -9 23 -3 49 39 17 28 27 50 22 50 -5 0 -6 7 -3
17 5 12 3 14 -8 8 -8 -5 -11 -5 -6 1 5 5 12 9 15 9 12 1 67 57 65 66 -2 5 11
31 27 59 29 49 41 81 19 50 -9 -13 -10 -13 -6 0 2 9 13 14 26 12 17 -3 25 5
40 38 36 81 7 104 -155 119 -60 6 -131 13 -159 15 -27 3 -60 1 -73 -4z m368
-115 c-12 -19 -24 -35 -27 -35 -2 0 5 15 16 34 12 18 22 42 22 52 1 17 2 17 6
1 2 -9 -5 -33 -17 -52z m-60 -95 c-6 -11 -13 -20 -16 -20 -2 0 0 9 6 20 6 11
13 20 16 20 2 0 0 -9 -6 -20z m-51 -80 c-17 -27 -33 -50 -35 -50 -6 0 -3 5 33
63 13 20 25 37 28 37 3 0 -9 -22 -26 -50z m-68 -103 c-10 -9 -11 -8 -5 6 3 10
9 15 12 12 3 -3 0 -11 -7 -18z m-27 -47 c-10 -16 -20 -28 -22 -26 -4 5 28 56
35 56 2 0 -4 -13 -13 -30z"/>
<path d="M1721 1005 c-28 -43 -50 -83 -48 -88 2 -6 15 11 30 36 25 42 32 47
65 48 20 0 32 3 26 5 -7 3 -10 13 -7 24 3 10 1 26 -5 36 -8 14 -18 4 -61 -61z"/>
<path d="M1338 998 c5 -5 16 -8 23 -6 8 3 3 7 -10 11 -17 4 -21 3 -13 -5z"/>
<path d="M1520 1000 c-9 -6 -10 -10 -3 -10 6 0 15 5 18 10 8 12 4 12 -15 0z"/>
<path d="M1136 985 c-9 -26 -7 -32 5 -12 6 10 9 21 6 23 -2 3 -7 -2 -11 -11z"/>
<path d="M1646 955 c-4 -26 -5 -49 -2 -53 3 -3 6 6 6 19 0 14 5 30 11 36 7 7
8 17 1 28 -7 14 -11 8 -16 -30z"/>
<path d="M1376 975 c-3 -9 -5 -31 -5 -48 1 -27 3 -24 9 13 8 48 6 61 -4 35z"/>
<path d="M1541 974 c0 -11 3 -14 6 -6 3 7 2 16 -1 19 -3 4 -6 -2 -5 -13z"/>
<path d="M1600 961 c0 -17 2 -31 4 -31 8 0 13 51 5 56 -5 3 -9 -9 -9 -25z"/>
<path d="M1167 963 c-10 -10 -8 -33 3 -33 5 0 6 8 3 18 -6 15 -5 16 13 2 18
-14 18 -14 5 3 -15 19 -15 19 -24 10z"/>
<path d="M1410 959 c0 -5 5 -7 10 -4 6 3 10 8 10 11 0 2 -4 4 -10 4 -5 0 -10
-5 -10 -11z"/>
<path d="M1293 945 c-3 -9 -3 -18 -1 -21 3 -3 8 4 11 16 6 23 -1 27 -10 5z"/>
<path d="M1456 952 c-3 -5 1 -9 9 -9 8 0 12 4 9 9 -3 4 -7 8 -9 8 -2 0 -6 -4
-9 -8z"/>
<path d="M1511 944 c0 -11 3 -14 6 -6 3 7 2 16 -1 19 -3 4 -6 -2 -5 -13z"/>
<path d="M1212 914 c-7 -8 -8 -14 -3 -14 10 0 25 19 20 25 -2 1 -10 -3 -17
-11z"/>
<path d="M1247 905 c-13 -18 -14 -25 -5 -31 7 -4 10 -3 5 1 -4 5 0 17 10 27 9
10 14 20 12 22 -2 2 -12 -6 -22 -19z"/>
<path d="M1450 913 c0 -10 4 -14 8 -8 4 6 11 13 16 18 5 4 2 7 -7 7 -10 0 -17
-8 -17 -17z"/>
<path d="M1497 906 c-4 -10 -1 -13 8 -9 8 3 12 9 9 14 -7 12 -11 11 -17 -5z"/>
<path d="M1551 904 c0 -11 3 -14 6 -6 3 7 2 16 -1 19 -3 4 -6 -2 -5 -13z"/>
<path d="M1410 900 c8 -5 20 -10 25 -10 6 0 3 5 -5 10 -8 5 -19 10 -25 10 -5
0 -3 -5 5 -10z"/>
<path d="M1300 890 c8 -5 20 -10 25 -10 6 0 3 5 -5 10 -8 5 -19 10 -25 10 -5
0 -3 -5 5 -10z"/>
<path d="M1376 882 c-2 -4 4 -8 14 -8 10 0 16 4 14 8 -3 4 -9 8 -14 8 -5 0
-11 -4 -14 -8z"/>
<path d="M743 841 c-31 -26 -39 -66 -19 -96 13 -20 25 -25 58 -25 25 0 49 7
62 18 l20 17 -18 -30 c-11 -16 -32 -47 -48 -67 l-30 -38 25 0 c27 0 63 43 51
62 -4 6 -3 8 3 5 9 -6 133 152 133 168 0 2 -10 2 -22 0 -26 -5 -69 -55 -63
-72 2 -7 -1 -12 -8 -10 -7 1 -11 -4 -9 -11 1 -8 -2 -11 -7 -8 -5 4 -7 21 -4
39 3 24 0 39 -12 50 -22 23 -84 21 -112 -2z m69 -46 c3 -14 3 -23 0 -20 -3 3
-11 -5 -18 -17 l-12 -23 -7 27 c-7 27 10 72 24 63 5 -2 11 -16 13 -30z m35 6
c0 -11 -5 -18 -9 -15 -4 3 -5 11 -1 19 7 21 12 19 10 -4z"/>
<path d="M1553 743 c-88 -136 -116 -183 -110 -183 8 0 189 282 184 286 -2 3
-36 -44 -74 -103z"/>
<path d="M930 747 c-30 -15 -45 -54 -36 -92 5 -18 12 -25 21 -21 8 3 15 0 15
-6 0 -17 80 -2 95 19 18 22 19 85 3 101 -16 16 -66 15 -98 -1z m54 -26 c-11
-57 -15 -71 -24 -71 -13 0 -13 57 0 65 6 4 8 10 6 14 -3 4 1 8 8 8 7 0 12 -7
10 -16z"/>
<path d="M1869 539 c-6 -11 -8 -23 -5 -26 3 -3 9 2 13 12 6 17 7 17 12 2 3 -9
11 -13 17 -9 6 5 4 13 -8 24 -17 17 -18 16 -29 -3z"/>
<path d="M1405 530 c3 -5 -2 -21 -11 -35 -9 -14 -15 -27 -13 -30 2 -2 14 11
26 30 19 28 20 34 7 39 -8 3 -12 1 -9 -4z"/>
<path d="M1318 346 c-4 -21 0 -31 17 -42 26 -17 125 -51 258 -89 l97 -27 21
26 c14 18 27 25 38 21 12 -5 13 -3 4 6 -6 6 -9 17 -6 24 8 24 -23 10 -50 -20
l-25 -29 -53 13 c-82 21 -301 92 -297 96 2 2 59 -14 128 -36 68 -22 128 -38
132 -37 5 2 -48 21 -117 43 -97 29 -129 43 -134 59 -7 18 -8 17 -13 -8z"/>
<path d="M1635 299 c-4 -6 -5 -12 -2 -15 2 -3 7 2 10 11 7 17 1 20 -8 4z"/>
<path d="M1672 287 c17 -13 17 -15 -1 -31 -13 -11 -28 -15 -47 -11 -28 5 -28
5 -4 -5 31 -14 66 -5 79 19 8 15 5 20 -17 30 -23 10 -25 10 -10 -2z"/>
</g>
</svg>
